# WaveFront *.obj file (generated by Autodesk ATF)

mtllib Bottom Panel.mtl

g Solid1

v -148.400000 0.000000 25.400000
v -148.400000 0.000000 76.200000
v -148.400000 4.000000 76.200000
v -148.400000 4.000000 25.400000
v -152.400000 0.000000 25.400000
v -152.400000 4.000000 25.400000
v -152.400000 0.000000 12.700000
v -152.400000 4.000000 12.700000
v -148.400000 0.000000 12.700000
v -148.400000 4.000000 12.700000
v -148.400000 0.000000 4.000000
v -148.400000 4.000000 4.000000
v -139.700000 0.000000 4.000000
v -139.700000 4.000000 4.000000
v -139.700000 0.000000 0.000000
v -139.700000 4.000000 0.000000
v -127.000000 0.000000 0.000000
v -127.000000 4.000000 0.000000
v -127.000000 0.000000 4.000000
v -127.000000 4.000000 4.000000
v -25.400000 0.000000 4.000000
v -25.400000 4.000000 4.000000
v -25.400000 0.000000 -0.000000
v -25.400000 4.000000 0.000000
v -12.700000 0.000000 0.000000
v -12.700000 4.000000 0.000000
v -12.700000 0.000000 4.000000
v -12.700000 4.000000 4.000000
v -4.000000 0.000000 4.000000
v -4.000000 4.000000 4.000000
v -4.000000 0.000000 12.700000
v -4.000000 4.000000 12.700000
v -0.000000 0.000000 12.700000
v -0.000000 4.000000 12.700000
v -0.000000 0.000000 25.400000
v -0.000000 4.000000 25.400000
v -4.000000 0.000000 25.400000
v -4.000000 4.000000 25.400000
v -4.000000 0.000000 76.200000
v -4.000000 4.000000 76.200000
v 0.000000 0.000000 76.200000
v 0.000000 4.000000 76.200000
v -0.000000 0.000000 88.900000
v -0.000000 4.000000 88.900000
v -4.000000 0.000000 88.900000
v -4.000000 4.000000 88.900000
v -4.000000 0.000000 97.600000
v -4.000000 4.000000 97.600000
v -12.700000 0.000000 97.600000
v -12.700000 4.000000 97.600000
v -12.700000 0.000000 101.600000
v -12.700000 4.000000 101.600000
v -25.400000 0.000000 101.600000
v -25.400000 4.000000 101.600000
v -25.400000 0.000000 97.600000
v -25.400000 4.000000 97.600000
v -127.000000 0.000000 97.600000
v -127.000000 4.000000 97.600000
v -127.000000 0.000000 101.600000
v -127.000000 4.000000 101.600000
v -139.700000 0.000000 101.600000
v -139.700000 4.000000 101.600000
v -139.700000 0.000000 97.600000
v -139.700000 4.000000 97.600000
v -148.400000 0.000000 97.600000
v -148.400000 4.000000 97.600000
v -148.400000 0.000000 88.900000
v -148.400000 4.000000 88.900000
v -152.400000 0.000000 88.900000
v -152.400000 4.000000 88.900000
v -152.400000 0.000000 76.200000
v -152.400000 4.000000 76.200000
vt 0.000000 0.000000 0.000000
vt 0.200000 0.000000 0.000000
vt 0.000000 0.015748 0.000000
vt 0.200000 0.015748 0.000000
vt 0.000000 0.000000 0.000000
vt 0.015748 0.000000 0.000000
vt 0.000000 0.015748 0.000000
vt 0.015748 0.015748 0.000000
vt 0.000000 0.000000 0.000000
vt 0.050000 0.000000 0.000000
vt -0.000000 0.015748 0.000000
vt 0.050000 0.015748 0.000000
vt 0.000000 0.000000 0.000000
vt 0.015748 0.000000 0.000000
vt 0.000000 0.015748 0.000000
vt 0.015748 0.015748 0.000000
vt 0.000000 0.000000 0.000000
vt 0.034252 0.000000 0.000000
vt 0.000000 0.015748 0.000000
vt 0.034252 0.015748 0.000000
vt 0.000000 0.000000 0.000000
vt 0.034252 0.000000 0.000000
vt 0.000000 0.015748 0.000000
vt 0.034252 0.015748 0.000000
vt 0.000000 0.000000 0.000000
vt 0.015748 0.000000 0.000000
vt 0.000000 0.015748 0.000000
vt 0.015748 0.015748 0.000000
vt 0.000000 0.000000 0.000000
vt 0.050000 0.000000 0.000000
vt 0.000000 0.015748 0.000000
vt 0.050000 0.015748 0.000000
vt 0.000000 0.000000 0.000000
vt 0.015748 0.000000 0.000000
vt 0.000000 0.015748 0.000000
vt 0.015748 0.015748 0.000000
vt 0.000000 0.000000 0.000000
vt 0.400000 0.000000 0.000000
vt 0.000000 0.015748 0.000000
vt 0.400000 0.015748 0.000000
vt 0.000000 0.000000 0.000000
vt 0.015748 0.000000 0.000000
vt 0.000000 0.015748 0.000000
vt 0.015748 0.015748 0.000000
vt 0.000000 0.000000 0.000000
vt 0.050000 0.000000 0.000000
vt -0.000000 0.015748 0.000000
vt 0.050000 0.015748 0.000000
vt -0.000000 0.000000 0.000000
vt 0.015748 0.000000 0.000000
vt -0.000000 0.015748 0.000000
vt 0.015748 0.015748 0.000000
vt -0.000000 0.000000 0.000000
vt 0.034252 0.000000 0.000000
vt -0.000000 0.015748 0.000000
vt 0.034252 0.015748 0.000000
vt -0.000000 0.000000 0.000000
vt 0.034252 0.000000 0.000000
vt 0.000000 0.015748 0.000000
vt 0.034252 0.015748 0.000000
vt -0.000000 0.000000 0.000000
vt 0.015748 0.000000 0.000000
vt 0.000000 0.015748 0.000000
vt 0.015748 0.015748 0.000000
vt 0.000000 0.000000 0.000000
vt 0.050000 0.000000 0.000000
vt 0.000000 0.015748 0.000000
vt 0.050000 0.015748 0.000000
vt 0.000000 0.000000 0.000000
vt 0.015748 0.000000 0.000000
vt 0.000000 0.015748 0.000000
vt 0.015748 0.015748 0.000000
vt 0.000000 0.000000 0.000000
vt 0.200000 0.000000 0.000000
vt 0.000000 0.015748 0.000000
vt 0.200000 0.015748 0.000000
vt 0.000000 0.000000 0.000000
vt 0.015748 0.000000 0.000000
vt 0.000000 0.015748 0.000000
vt 0.015748 0.015748 0.000000
vt 0.000000 0.000000 0.000000
vt 0.050000 0.000000 0.000000
vt 0.000000 0.015748 0.000000
vt 0.050000 0.015748 0.000000
vt 0.000000 0.000000 0.000000
vt 0.015748 0.000000 0.000000
vt 0.000000 0.015748 0.000000
vt 0.015748 0.015748 0.000000
vt 0.000000 0.000000 0.000000
vt 0.034252 0.000000 0.000000
vt 0.000000 0.015748 0.000000
vt 0.034252 0.015748 0.000000
vt 0.000000 0.000000 0.000000
vt 0.034252 0.000000 0.000000
vt -0.000000 0.015748 0.000000
vt 0.034252 0.015748 0.000000
vt 0.000000 0.000000 0.000000
vt 0.015748 0.000000 0.000000
vt 0.000000 0.015748 0.000000
vt 0.015748 0.015748 0.000000
vt -0.000000 0.000000 0.000000
vt 0.050000 0.000000 0.000000
vt -0.000000 0.015748 0.000000
vt 0.050000 0.015748 0.000000
vt 0.000000 0.000000 0.000000
vt 0.015748 0.000000 0.000000
vt 0.000000 0.015748 0.000000
vt 0.015748 0.015748 0.000000
vt 0.000000 0.000000 0.000000
vt 0.400000 0.000000 0.000000
vt 0.000000 0.015748 0.000000
vt 0.400000 0.015748 0.000000
vt -0.000000 0.000000 0.000000
vt 0.015748 0.000000 0.000000
vt -0.000000 0.015748 0.000000
vt 0.015748 0.015748 0.000000
vt -0.000000 0.000000 0.000000
vt 0.050000 0.000000 0.000000
vt -0.000000 0.015748 0.000000
vt 0.050000 0.015748 0.000000
vt 0.000000 0.000000 0.000000
vt 0.015748 0.000000 0.000000
vt 0.000000 0.015748 0.000000
vt 0.015748 0.015748 0.000000
vt 0.000000 0.000000 0.000000
vt 0.034252 0.000000 0.000000
vt 0.000000 0.015748 0.000000
vt 0.034252 0.015748 0.000000
vt 0.000000 0.000000 0.000000
vt 0.034252 0.000000 0.000000
vt 0.000000 0.015748 0.000000
vt 0.034252 0.015748 0.000000
vt 0.000000 0.000000 0.000000
vt 0.015748 0.000000 0.000000
vt 0.000000 0.015748 0.000000
vt 0.015748 0.015748 0.000000
vt 0.000000 0.000000 0.000000
vt 0.050000 0.000000 0.000000
vt 0.000000 0.015748 0.000000
vt 0.050000 0.015748 0.000000
vt -0.000000 0.000000 0.000000
vt 0.015748 0.000000 0.000000
vt -0.000000 0.015748 0.000000
vt 0.015748 0.015748 0.000000
vt 0.100000 -0.300000 0.000000
vt 0.150000 -0.300000 0.000000
vt 0.100000 -0.284252 0.000000
vt 0.150000 -0.284252 0.000000
vt 0.184252 -0.200000 0.000000
vt 0.184252 -0.250000 0.000000
vt 0.200000 -0.250000 0.000000
vt 0.184252 -0.284252 0.000000
vt 0.200000 -0.200000 0.000000
vt 0.100000 0.284252 0.000000
vt 0.184252 0.200000 0.000000
vt 0.150000 0.284252 0.000000
vt 0.184252 0.250000 0.000000
vt 0.184252 0.284252 0.000000
vt 0.200000 0.200000 0.000000
vt 0.200000 0.250000 0.000000
vt 0.150000 0.300000 0.000000
vt 0.100000 0.300000 0.000000
vt -0.100000 0.284252 0.000000
vt -0.100000 -0.284252 0.000000
vt -0.184252 -0.200000 0.000000
vt -0.150000 -0.284252 0.000000
vt -0.184252 -0.250000 0.000000
vt -0.184252 -0.284252 0.000000
vt -0.100000 0.300000 0.000000
vt -0.150000 0.300000 0.000000
vt -0.150000 0.284252 0.000000
vt -0.184252 0.200000 0.000000
vt -0.184252 0.250000 0.000000
vt -0.200000 0.250000 0.000000
vt -0.184252 0.284252 0.000000
vt -0.200000 0.200000 0.000000
vt -0.200000 -0.200000 0.000000
vt -0.200000 -0.250000 0.000000
vt -0.150000 -0.300000 0.000000
vt -0.100000 -0.300000 0.000000
vt -0.150000 -0.300000 0.000000
vt -0.100000 -0.300000 0.000000
vt -0.150000 -0.284252 0.000000
vt -0.100000 -0.284252 0.000000
vt -0.184252 -0.200000 0.000000
vt -0.100000 0.284252 0.000000
vt -0.184252 0.200000 0.000000
vt -0.150000 0.284252 0.000000
vt -0.184252 0.250000 0.000000
vt -0.184252 0.284252 0.000000
vt 0.100000 -0.284252 0.000000
vt 0.100000 0.284252 0.000000
vt 0.184252 -0.200000 0.000000
vt 0.184252 0.200000 0.000000
vt 0.100000 -0.300000 0.000000
vt 0.150000 -0.300000 0.000000
vt 0.150000 -0.284252 0.000000
vt 0.184252 -0.250000 0.000000
vt 0.200000 -0.250000 0.000000
vt 0.184252 -0.284252 0.000000
vt 0.200000 -0.200000 0.000000
vt 0.200000 0.200000 0.000000
vt 0.184252 0.250000 0.000000
vt 0.150000 0.284252 0.000000
vt 0.100000 0.300000 0.000000
vt 0.150000 0.300000 0.000000
vt 0.200000 0.250000 0.000000
vt 0.184252 0.284252 0.000000
vt -0.100000 0.300000 0.000000
vt -0.150000 0.300000 0.000000
vt -0.200000 0.250000 0.000000
vt -0.200000 0.200000 0.000000
vt -0.184252 -0.250000 0.000000
vt -0.200000 -0.200000 0.000000
vt -0.200000 -0.250000 0.000000
vt -0.184252 -0.284252 0.000000
vn -0.100000 0.000000 0.000000
vn -0.100000 0.000000 0.000000
vn -0.100000 0.000000 0.000000
vn -0.100000 0.000000 0.000000
vn 0.000000 -0.000000 0.100000
vn 0.000000 -0.000000 0.100000
vn 0.000000 -0.000000 0.100000
vn 0.000000 -0.000000 0.100000
vn -0.100000 0.000000 0.000000
vn -0.100000 0.000000 0.000000
vn -0.100000 0.000000 0.000000
vn -0.100000 0.000000 0.000000
vn 0.000000 0.000000 -0.100000
vn 0.000000 0.000000 -0.100000
vn 0.000000 0.000000 -0.100000
vn 0.000000 0.000000 -0.100000
vn -0.100000 0.000000 0.000000
vn -0.100000 0.000000 0.000000
vn -0.100000 0.000000 0.000000
vn -0.100000 0.000000 0.000000
vn -0.000000 0.000000 -0.100000
vn -0.000000 0.000000 -0.100000
vn -0.000000 0.000000 -0.100000
vn -0.000000 0.000000 -0.100000
vn -0.100000 0.000000 0.000000
vn -0.100000 0.000000 0.000000
vn -0.100000 0.000000 0.000000
vn -0.100000 0.000000 0.000000
vn 0.000000 0.000000 -0.100000
vn 0.000000 0.000000 -0.100000
vn 0.000000 0.000000 -0.100000
vn 0.000000 0.000000 -0.100000
vn 0.100000 -0.000000 0.000000
vn 0.100000 -0.000000 0.000000
vn 0.100000 -0.000000 0.000000
vn 0.100000 -0.000000 0.000000
vn -0.000000 0.000000 -0.100000
vn -0.000000 0.000000 -0.100000
vn -0.000000 0.000000 -0.100000
vn -0.000000 0.000000 -0.100000
vn -0.100000 0.000000 0.000000
vn -0.100000 0.000000 0.000000
vn -0.100000 0.000000 0.000000
vn -0.100000 0.000000 0.000000
vn 0.000000 0.000000 -0.100000
vn 0.000000 0.000000 -0.100000
vn 0.000000 0.000000 -0.100000
vn 0.000000 0.000000 -0.100000
vn 0.100000 0.000000 0.000000
vn 0.100000 0.000000 0.000000
vn 0.100000 0.000000 0.000000
vn 0.100000 0.000000 0.000000
vn 0.000000 0.000000 -0.100000
vn 0.000000 0.000000 -0.100000
vn 0.000000 0.000000 -0.100000
vn 0.000000 0.000000 -0.100000
vn 0.100000 0.000000 0.000000
vn 0.100000 0.000000 0.000000
vn 0.100000 0.000000 0.000000
vn 0.100000 0.000000 0.000000
vn 0.000000 0.000000 -0.100000
vn 0.000000 0.000000 -0.100000
vn 0.000000 0.000000 -0.100000
vn 0.000000 0.000000 -0.100000
vn 0.100000 0.000000 -0.000000
vn 0.100000 0.000000 -0.000000
vn 0.100000 0.000000 -0.000000
vn 0.100000 0.000000 -0.000000
vn 0.000000 0.000000 0.100000
vn 0.000000 0.000000 0.100000
vn 0.000000 0.000000 0.100000
vn 0.000000 0.000000 0.100000
vn 0.100000 -0.000000 0.000000
vn 0.100000 -0.000000 0.000000
vn 0.100000 -0.000000 0.000000
vn 0.100000 -0.000000 0.000000
vn 0.000000 0.000000 -0.100000
vn 0.000000 0.000000 -0.100000
vn 0.000000 0.000000 -0.100000
vn 0.000000 0.000000 -0.100000
vn 0.100000 0.000000 -0.000000
vn 0.100000 0.000000 -0.000000
vn 0.100000 0.000000 -0.000000
vn 0.100000 0.000000 -0.000000
vn 0.000000 0.000000 0.100000
vn 0.000000 0.000000 0.100000
vn 0.000000 0.000000 0.100000
vn 0.000000 0.000000 0.100000
vn 0.100000 -0.000000 0.000000
vn 0.100000 -0.000000 0.000000
vn 0.100000 -0.000000 0.000000
vn 0.100000 -0.000000 0.000000
vn 0.000000 0.000000 0.100000
vn 0.000000 0.000000 0.100000
vn 0.000000 0.000000 0.100000
vn 0.000000 0.000000 0.100000
vn 0.100000 -0.000000 0.000000
vn 0.100000 -0.000000 0.000000
vn 0.100000 -0.000000 0.000000
vn 0.100000 -0.000000 0.000000
vn -0.000000 0.000000 0.100000
vn -0.000000 0.000000 0.100000
vn -0.000000 0.000000 0.100000
vn -0.000000 0.000000 0.100000
vn -0.100000 0.000000 0.000000
vn -0.100000 0.000000 0.000000
vn -0.100000 0.000000 0.000000
vn -0.100000 0.000000 0.000000
vn -0.000000 0.000000 0.100000
vn -0.000000 0.000000 0.100000
vn -0.000000 0.000000 0.100000
vn -0.000000 0.000000 0.100000
vn 0.100000 0.000000 0.000000
vn 0.100000 0.000000 0.000000
vn 0.100000 0.000000 0.000000
vn 0.100000 0.000000 0.000000
vn -0.000000 0.000000 0.100000
vn -0.000000 0.000000 0.100000
vn -0.000000 0.000000 0.100000
vn -0.000000 0.000000 0.100000
vn -0.100000 0.000000 0.000000
vn -0.100000 0.000000 0.000000
vn -0.100000 0.000000 0.000000
vn -0.100000 0.000000 0.000000
vn 0.000000 -0.000000 0.100000
vn 0.000000 -0.000000 0.100000
vn 0.000000 -0.000000 0.100000
vn 0.000000 -0.000000 0.100000
vn -0.100000 0.000000 0.000000
vn -0.100000 0.000000 0.000000
vn -0.100000 0.000000 0.000000
vn -0.100000 0.000000 0.000000
vn 0.000000 -0.000000 0.100000
vn 0.000000 -0.000000 0.100000
vn 0.000000 -0.000000 0.100000
vn 0.000000 -0.000000 0.100000
vn -0.100000 0.000000 0.000000
vn -0.100000 0.000000 0.000000
vn -0.100000 0.000000 0.000000
vn -0.100000 0.000000 0.000000
vn 0.000000 0.000000 -0.100000
vn 0.000000 0.000000 -0.100000
vn 0.000000 0.000000 -0.100000
vn 0.000000 0.000000 -0.100000
vn 0.000000 0.100000 0.000000
vn 0.000000 0.100000 0.000000
vn 0.000000 0.100000 0.000000
vn 0.000000 0.100000 0.000000
vn 0.000000 0.100000 0.000000
vn 0.000000 0.100000 0.000000
vn 0.000000 0.100000 0.000000
vn 0.000000 0.100000 0.000000
vn 0.000000 0.100000 0.000000
vn 0.000000 0.100000 0.000000
vn 0.000000 0.100000 0.000000
vn 0.000000 0.100000 0.000000
vn 0.000000 0.100000 0.000000
vn 0.000000 0.100000 0.000000
vn 0.000000 0.100000 0.000000
vn 0.000000 0.100000 0.000000
vn 0.000000 0.100000 0.000000
vn 0.000000 0.100000 0.000000
vn 0.000000 0.100000 0.000000
vn 0.000000 0.100000 0.000000
vn 0.000000 0.100000 0.000000
vn 0.000000 0.100000 0.000000
vn 0.000000 0.100000 0.000000
vn 0.000000 0.100000 0.000000
vn 0.000000 0.100000 0.000000
vn 0.000000 0.100000 0.000000
vn 0.000000 0.100000 0.000000
vn 0.000000 0.100000 0.000000
vn 0.000000 0.100000 0.000000
vn 0.000000 0.100000 0.000000
vn 0.000000 0.100000 0.000000
vn 0.000000 0.100000 0.000000
vn 0.000000 0.100000 0.000000
vn 0.000000 0.100000 0.000000
vn 0.000000 0.100000 0.000000
vn 0.000000 0.100000 0.000000
vn 0.000000 -0.100000 0.000000
vn 0.000000 -0.100000 0.000000
vn 0.000000 -0.100000 0.000000
vn 0.000000 -0.100000 0.000000
vn 0.000000 -0.100000 0.000000
vn 0.000000 -0.100000 0.000000
vn 0.000000 -0.100000 0.000000
vn 0.000000 -0.100000 0.000000
vn 0.000000 -0.100000 0.000000
vn 0.000000 -0.100000 0.000000
vn 0.000000 -0.100000 0.000000
vn 0.000000 -0.100000 0.000000
vn 0.000000 -0.100000 0.000000
vn 0.000000 -0.100000 0.000000
vn 0.000000 -0.100000 0.000000
vn 0.000000 -0.100000 0.000000
vn 0.000000 -0.100000 0.000000
vn 0.000000 -0.100000 0.000000
vn 0.000000 -0.100000 0.000000
vn 0.000000 -0.100000 0.000000
vn 0.000000 -0.100000 0.000000
vn 0.000000 -0.100000 0.000000
vn 0.000000 -0.100000 0.000000
vn 0.000000 -0.100000 0.000000
vn 0.000000 -0.100000 0.000000
vn 0.000000 -0.100000 0.000000
vn 0.000000 -0.100000 0.000000
vn 0.000000 -0.100000 0.000000
vn 0.000000 -0.100000 0.000000
vn 0.000000 -0.100000 0.000000
vn 0.000000 -0.100000 0.000000
vn 0.000000 -0.100000 0.000000
vn 0.000000 -0.100000 0.000000
vn 0.000000 -0.100000 0.000000
vn 0.000000 -0.100000 0.000000
vn 0.000000 -0.100000 0.000000
usemtl 255,255,255
f 1/1/1 2/2/2 4/3/3
f 4/3/3 2/2/2 3/4/4
f 5/5/5 1/6/6 6/7/7
f 6/7/7 1/6/6 4/8/8
f 7/9/9 5/10/10 8/11/11
f 8/11/11 5/10/10 6/12/12
f 9/13/13 7/14/14 10/15/15
f 10/15/15 7/14/14 8/16/16
f 11/17/17 9/18/18 12/19/19
f 12/19/19 9/18/18 10/20/20
f 13/21/21 11/22/22 14/23/23
f 14/23/23 11/22/22 12/24/24
f 15/25/25 13/26/26 16/27/27
f 16/27/27 13/26/26 14/28/28
f 17/29/29 15/30/30 18/31/31
f 18/31/31 15/30/30 16/32/32
f 19/33/33 17/34/34 20/35/35
f 20/35/35 17/34/34 18/36/36
f 21/37/37 19/38/38 22/39/39
f 22/39/39 19/38/38 20/40/40
f 23/41/41 21/42/42 24/43/43
f 24/43/43 21/42/42 22/44/44
f 25/45/45 23/46/46 26/47/47
f 26/47/47 23/46/46 24/48/48
f 27/49/49 25/50/50 28/51/51
f 28/51/51 25/50/50 26/52/52
f 29/53/53 27/54/54 30/55/55
f 30/55/55 27/54/54 28/56/56
f 31/57/57 29/58/58 32/59/59
f 32/59/59 29/58/58 30/60/60
f 33/61/61 31/62/62 34/63/63
f 34/63/63 31/62/62 32/64/64
f 35/65/65 33/66/66 36/67/67
f 36/67/67 33/66/66 34/68/68
f 37/69/69 35/70/70 38/71/71
f 38/71/71 35/70/70 36/72/72
f 39/73/73 37/74/74 40/75/75
f 40/75/75 37/74/74 38/76/76
f 41/77/77 39/78/78 42/79/79
f 42/79/79 39/78/78 40/80/80
f 43/81/81 41/82/82 44/83/83
f 44/83/83 41/82/82 42/84/84
f 45/85/85 43/86/86 46/87/87
f 46/87/87 43/86/86 44/88/88
f 47/89/89 45/90/90 48/91/91
f 48/91/91 45/90/90 46/92/92
f 49/93/93 47/94/94 50/95/95
f 50/95/95 47/94/94 48/96/96
f 51/97/97 49/98/98 52/99/99
f 52/99/99 49/98/98 50/100/100
f 53/101/101 51/102/102 54/103/103
f 54/103/103 51/102/102 52/104/104
f 55/105/105 53/106/106 56/107/107
f 56/107/107 53/106/106 54/108/108
f 57/109/109 55/110/110 58/111/111
f 58/111/111 55/110/110 56/112/112
f 59/113/113 57/114/114 60/115/115
f 60/115/115 57/114/114 58/116/116
f 61/117/117 59/118/118 62/119/119
f 62/119/119 59/118/118 60/120/120
f 63/121/121 61/122/122 64/123/123
f 64/123/123 61/122/122 62/124/124
f 65/125/125 63/126/126 66/127/127
f 66/127/127 63/126/126 64/128/128
f 67/129/129 65/130/130 68/131/131
f 68/131/131 65/130/130 66/132/132
f 69/133/133 67/134/134 70/135/135
f 70/135/135 67/134/134 68/136/136
f 71/137/137 69/138/138 72/139/139
f 72/139/139 69/138/138 70/140/140
f 2/141/141 71/142/142 3/143/143
f 3/143/143 71/142/142 72/144/144
f 72/145/145 70/146/146 3/147/147
f 3/147/147 70/146/146 68/148/148
f 3/147/147 68/148/148 58/149/149
f 58/149/149 68/148/148 64/150/150
f 58/149/149 64/150/150 62/151/151
f 68/148/148 66/152/152 64/150/150
f 62/151/151 60/153/153 58/149/149
f 3/147/147 58/149/149 40/154/154
f 40/154/154 58/149/149 56/155/155
f 40/154/154 56/155/155 46/156/156
f 46/156/156 56/155/155 50/157/157
f 46/156/156 50/157/157 48/158/158
f 56/155/155 54/159/159 50/157/157
f 50/157/157 54/159/159 52/160/160
f 44/161/161 42/162/162 46/156/156
f 46/156/156 42/162/162 40/154/154
f 40/154/154 38/163/163 3/147/147
f 3/147/147 38/163/163 4/164/164
f 4/164/164 38/163/163 20/165/165
f 4/164/164 20/165/165 10/166/166
f 10/166/166 20/165/165 14/167/167
f 10/166/166 14/167/167 12/168/168
f 36/169/169 34/170/170 38/163/163
f 38/163/163 34/170/170 32/171/171
f 38/163/163 32/171/171 22/172/172
f 22/172/172 32/171/171 28/173/173
f 22/172/172 28/173/173 26/174/174
f 32/171/171 30/175/175 28/173/173
f 26/174/174 24/176/176 22/172/172
f 22/172/172 20/165/165 38/163/163
f 20/165/165 18/177/177 14/167/167
f 14/167/167 18/177/177 16/178/178
f 8/179/179 6/180/180 10/166/166
f 10/166/166 6/180/180 4/164/164
f 69/181/181 71/182/182 67/183/183
f 67/183/183 71/182/182 2/184/184
f 67/183/183 2/184/184 57/185/185
f 57/185/185 2/184/184 39/186/186
f 57/185/185 39/186/186 55/187/187
f 55/187/187 39/186/186 45/188/188
f 55/187/187 45/188/188 49/189/189
f 49/189/189 45/188/188 47/190/190
f 2/184/184 1/191/191 39/186/186
f 39/186/186 1/191/191 37/192/192
f 37/192/192 1/191/191 19/193/193
f 37/192/192 19/193/193 21/194/194
f 5/195/195 7/196/196 1/191/191
f 1/191/191 7/196/196 9/197/197
f 1/191/191 9/197/197 19/193/193
f 19/193/193 9/197/197 13/198/198
f 19/193/193 13/198/198 15/199/199
f 9/197/197 11/200/200 13/198/198
f 15/199/199 17/201/201 19/193/193
f 23/202/202 27/203/203 21/194/194
f 21/194/194 27/203/203 31/204/204
f 21/194/194 31/204/204 37/192/192
f 37/192/192 31/204/204 35/205/205
f 35/205/205 31/204/204 33/206/206
f 23/202/202 25/207/207 27/203/203
f 27/203/203 29/208/208 31/204/204
f 41/209/209 43/210/210 39/186/186
f 39/186/186 43/210/210 45/188/188
f 49/189/189 51/211/211 55/187/187
f 55/187/187 51/211/211 53/212/212
f 67/183/183 57/185/185 63/213/213
f 63/213/213 57/185/185 59/214/214
f 63/213/213 59/214/214 61/215/215
f 63/213/213 65/216/216 67/183/183
# 72 vertices
# 216 texture params
# 216 normals
# 140 facets

# 1 groups
