<?xml version="1.0" encoding="UTF-8" standalone="no"?>
<svg
   width="258.4000015258789mm"
   height="208.59999847412104mm"
   viewBox="-94.4000015258789 -276.99999999999994 258.4000015258789 208.59999847412104"
   version="1.1"
   id="svg1214"
   sodipodi:docname="Resin Doser.svg"
   inkscape:version="1.2 (dc2aedaf03, 2022-05-15)"
   xmlns:inkscape="http://www.inkscape.org/namespaces/inkscape"
   xmlns:sodipodi="http://sodipodi.sourceforge.net/DTD/sodipodi-0.dtd"
   xmlns="http://www.w3.org/2000/svg"
   xmlns:svg="http://www.w3.org/2000/svg">
  <defs
     id="defs1218" />
  <sodipodi:namedview
     id="namedview1216"
     pagecolor="#ffffff"
     bordercolor="#666666"
     borderopacity="1.0"
     inkscape:showpageshadow="2"
     inkscape:pageopacity="0.0"
     inkscape:pagecheckerboard="0"
     inkscape:deskcolor="#d1d1d1"
     inkscape:document-units="mm"
     showgrid="false"
     inkscape:zoom="0.66589768"
     inkscape:cx="473.04565"
     inkscape:cy="394.95557"
     inkscape:window-width="1366"
     inkscape:window-height="705"
     inkscape:window-x="-8"
     inkscape:window-y="-8"
     inkscape:window-maximized="1"
     inkscape:current-layer="svg1214" />
  <title
     id="title1208">svgOutput</title>
  <desc
     id="desc1210">made with tinkercad</desc>
  <path
     d="M 163 -263.2999877929687 L 162 -263.2999877929687 L 159 -263.2999877929687 L 159 -262.1440124511718 L 159 -250.60000610351557 L 162 -250.60000610351557 L 163 -250.60000610351557 L 163 -199.80000305175776 L 162 -199.80000305175776 L 159 -199.80000305175776 L 159 -187.1000061035156 L 162 -187.1000061035156 L 163 -187.1000061035156 L 163 -178.39999389648435 L 162 -178.39999389648435 L 118.55000305175781 -178.39999389648435 L 118.55000305175781 -174.39999389648435 L 105.8499984741211 -174.39999389648435 L 105.8499984741211 -178.39999389648435 L 65.4000015258789 -178.39999389648435 L 61.400001525878906 -178.39999389648435 L 61.400001525878906 -187.1000061035156 L 65.4000015258789 -187.1000061035156 L 65.4000015258789 -199.80000305175776 L 61.400001525878906 -199.80000305175776 L 61.400001525878906 -250.60000610351557 L 65.4000015258789 -250.60000610351557 L 65.4000015258789 -262.1440124511718 L 65.4000015258789 -263.2999877929687 L 61.400001525878906 -263.2999877929687 L 61.400001525878906 -271.99999999999994 L 105.8499984741211 -271.99999999999994 L 105.8499984741211 -275.99999999999994 L 118.55000305175781 -275.99999999999994 L 118.55000305175781 -271.99999999999994 L 159 -271.99999999999994 L 162 -271.99999999999994 L 163 -271.99999999999994 L 163 -263.2999877929687 M 162 -159.30000305175778 L 158 -159.30000305175778 L 158 -146.6000061035156 L 162 -146.6000061035156 L 162 -131.0720062255859 L 162 -95.8000030517578 L 158 -95.8000030517578 L 158 -83.09999847412108 L 162 -83.09999847412108 L 162 -74.40000152587889 L 117.55000305175781 -74.40000152587889 L 117.55000305175781 -70.40000152587889 L 104.8499984741211 -70.40000152587889 L 104.8499984741211 -74.40000152587889 L 64.4000015258789 -74.40000152587889 L 60.400001525878906 -74.40000152587889 L 60.400001525878906 -83.09999847412108 L 64.4000015258789 -83.09999847412108 L 64.4000015258789 -95.8000030517578 L 60.400001525878906 -95.8000030517578 L 60.400001525878906 -131.0720062255859 L 60.400001525878906 -146.6000061035156 L 64.4000015258789 -146.6000061035156 L 64.4000015258789 -159.30000305175778 L 60.400001525878906 -159.30000305175778 L 60.400001525878906 -167.99999999999997 L 64.4000015258789 -167.99999999999997 L 65.53600311279297 -167.99999999999997 L 98.30400085449219 -167.99999999999997 L 104.8499984741211 -167.99999999999997 L 104.8499984741211 -171.99999999999997 L 117.55000305175781 -171.99999999999997 L 117.55000305175781 -167.99999999999997 L 131.07200622558594 -167.99999999999997 L 158 -167.99999999999997 L 162 -167.99999999999997 L 162 -159.30000305175778 M 59 -173.39999389648435 L 46.29999923706055 -173.39999389648435 L 46.29999923706055 -177.39999389648435 L 33.599998474121094 -177.39999389648435 L 33.599998474121094 -173.39999389648435 L 0 -173.39999389648435 L -68 -173.39999389648435 L -68 -177.39999389648435 L -80.69999694824219 -177.39999389648435 L -80.69999694824219 -173.39999389648435 L -93.4000015258789 -173.39999389648435 L -93.4000015258789 -177.39999389648435 L -93.4000015258789 -217.85000610351557 L -89.4000015258789 -217.85000610351557 L -89.4000015258789 -230.55000305175776 L -93.4000015258789 -230.55000305175776 L -93.4000015258789 -274.99999999999994 L -80.69999694824219 -274.99999999999994 L -80.69999694824219 -270.99999999999994 L -68 -270.99999999999994 L -68 -274.99999999999994 L 0 -274.99999999999994 L 33.599998474121094 -274.99999999999994 L 33.599998474121094 -270.99999999999994 L 46.29999923706055 -270.99999999999994 L 46.29999923706055 -274.99999999999994 L 59 -274.99999999999994 L 59 -230.55000305175776 L 55 -230.55000305175776 L 55 -217.85000610351557 L 59 -217.85000610351557 L 59 -173.39999389648435 M 46.29999923706055 -170.99999999999997 L 59 -170.99999999999997 L 59 -131.0720062255859 L 59 -126.55000305175778 L 55 -126.55000305175778 L 55 -113.84999847412107 L 59 -113.84999847412107 L 59 -98.30400085449216 L 59 -73.40000152587889 L 59 -69.40000152587889 L 46.29999923706055 -69.40000152587889 L 46.29999923706055 -73.40000152587889 L 33.599998474121094 -73.40000152587889 L 33.599998474121094 -69.40000152587889 L 0 -69.40000152587889 L -32.768001556396484 -69.40000152587889 L -65.53600311279297 -69.40000152587889 L -68 -69.40000152587889 L -68 -73.40000152587889 L -80.69999694824219 -73.40000152587889 L -80.69999694824219 -69.40000152587889 L -89.4000015258789 -69.40000152587889 L -93.4000015258789 -69.40000152587889 L -93.4000015258789 -113.84999847412107 L -89.4000015258789 -113.84999847412107 L -89.4000015258789 -126.55000305175778 L -93.4000015258789 -126.55000305175778 L -93.4000015258789 -131.0720062255859 L -93.4000015258789 -170.99999999999997 L -80.69999694824219 -170.99999999999997 L -80.69999694824219 -166.99999999999997 L -68 -166.99999999999997 L -68 -170.99999999999997 L -65.53600311279297 -170.99999999999997 L -32.768001556396484 -170.99999999999997 L 0 -170.99999999999997 L 32.768001556396484 -170.99999999999997 L 33.599998474121094 -170.99999999999997 L 33.599998474121094 -166.99999999999997 L 46.29999923706055 -166.99999999999997 L 46.29999923706055 -170.99999999999997 M 72.49349975585938 -153.71624755859372 L 72.47687530517578 -153.75300598144528 L 72.338623046875 -153.99975585937497 L 72.31600189208984 -154.03324890136716 L 72.13837432861328 -154.25286865234372 L 72.1104965209961 -154.28199768066403 L 71.89875030517578 -154.46925354003903 L 71.86624908447266 -154.49325561523435 L 71.62562561035156 -154.64112854003903 L 71.5895004272461 -154.65937805175778 L 71.3270034790039 -154.76437377929685 L 71.28837585449219 -154.77612304687497 L 71.01187133789062 -154.83650207519528 L 70.97187805175781 -154.84162902832028 L 70.68924713134766 -154.85299682617185 L 70.64887237548828 -154.85137939453122 L 70.3688735961914 -154.81550598144528 L 70.32937622070312 -154.8068695068359 L 70.05899810791016 -154.72462463378903 L 70.02149963378906 -154.7096252441406 L 69.76862335205078 -154.58187866210935 L 69.7342529296875 -154.56074523925778 L 69.63200378417969 -154.48524475097653 L 69.50675201416016 -154.39274597167966 L 69.47650146484375 -154.3659973144531 L 69.2813720703125 -154.16212463378903 L 69.25599670410156 -154.13075256347653 L 69.09762573242188 -153.89625549316403 L 69.07787322998047 -153.8609924316406 L 68.96150207519531 -153.6037445068359 L 68.947998046875 -153.56562805175778 L 68.87625122070312 -153.29174804687497 L 68.86949920654297 -153.25199890136716 L 68.84587860107422 -152.9702453613281 L 68.84587860107422 -152.92974853515622 L 68.86949920654297 -152.64799499511716 L 68.87625122070312 -152.60824584960935 L 68.947998046875 -152.3343811035156 L 68.96150207519531 -152.2962493896484 L 69.07787322998047 -152.03900146484372 L 69.09762573242188 -152.00375366210935 L 69.25599670410156 -151.76925659179685 L 69.2813720703125 -151.73786926269528 L 69.45927429199219 -151.55200195312497 L 69.47650146484375 -151.53399658203122 L 69.50675201416016 -151.50724792480466 L 69.7342529296875 -151.33924865722653 L 69.76862335205078 -151.31813049316403 L 70.02149963378906 -151.19036865234372 L 70.05899810791016 -151.17536926269528 L 70.32937622070312 -151.0931243896484 L 70.3688735961914 -151.0845031738281 L 70.64887237548828 -151.04862976074216 L 70.68924713134766 -151.04699707031247 L 70.97187805175781 -151.0583801269531 L 71.01187133789062 -151.0635070800781 L 71.28837585449219 -151.12387084960935 L 71.3270034790039 -151.13562011718747 L 71.5895004272461 -151.2406311035156 L 71.62562561035156 -151.25888061523435 L 71.86624908447266 -151.40675354003903 L 71.89875030517578 -151.43075561523435 L 72.0358657836914 -151.55200195312497 L 72.1104965209961 -151.61799621582028 L 72.13837432861328 -151.6471252441406 L 72.31600189208984 -151.86674499511716 L 72.338623046875 -151.9002532958984 L 72.47687530517578 -152.1470031738281 L 72.49349975585938 -152.1837463378906 L 72.58799743652344 -152.45062255859372 L 72.59825134277344 -152.48974609374997 L 72.64550018310547 -152.76800537109372 L 72.64887237548828 -152.80824279785153 L 72.64887237548828 -153.09175109863278 L 72.64550018310547 -153.13200378417966 L 72.59825134277344 -153.41024780273435 L 72.58799743652344 -153.4493713378906 L 72.53466033935547 -153.6000061035156 L 72.49349975585938 -153.71624755859372 M 6.7129998207092285 -147.61000061035153 L 6.538099765777588 -147.45599365234372 L 6.394999980926514 -147.33000183105466 L 6.129000186920166 -146.99999999999997 L 5.921999931335449 -146.63000488281247 L 5.781000137329102 -146.22999572753903 L 5.709000110626221 -145.8119964599609 L 5.709000110626221 -145.38800048828122 L 5.781000137329102 -144.9700012207031 L 5.921999931335449 -144.57000732421872 L 6.129000186920166 -144.19999694824216 L 6.394999980926514 -143.86999511718747 L 6.7129998207092285 -143.5899963378906 L 7.073999881744385 -143.36799621582028 L 7.4679999351501465 -143.21000671386716 L 7.881999969482422 -143.11999511718747 L 8.192000389099121 -143.1068420410156 L 8.305999755859375 -143.10200500488278 L 8.72700023651123 -143.15600585937497 L 9.131999969482422 -143.27999877929685 L 9.51099967956543 -143.47099304199216 L 9.85200023651123 -143.7230072021484 L 10.145000457763672 -144.02900695800778 L 10.383000373840332 -144.38099670410153 L 10.557000160217285 -144.7669982910156 L 10.663999557495117 -145.17700195312497 L 10.699999809265137 -145.6000061035156 L 10.663999557495117 -146.02299499511716 L 10.557000160217285 -146.43299865722653 L 10.383000373840332 -146.8190002441406 L 10.145000457763672 -147.1710052490234 L 9.87210750579834 -147.45599365234372 L 9.85200023651123 -147.47700500488278 L 9.51099967956543 -147.72900390624997 L 9.131999969482422 -147.91999816894528 L 8.72700023651123 -148.04400634765622 L 8.305999755859375 -148.0980072021484 L 7.881999969482422 -148.08000183105466 L 7.4679999351501465 -147.99000549316403 L 7.073999881744385 -147.83200073242185 L 6.7129998207092285 -147.61000061035153 M 19.007999420166016 -123.14399719238278 L 18.654823303222656 -122.87999725341794 L 18.607999801635742 -122.8450012207031 L 18.2549991607666 -122.49199676513669 L 17.95599937438965 -122.09200286865232 L 17.715999603271484 -121.65399932861325 L 17.54199981689453 -121.18599700927732 L 17.43600082397461 -120.69799804687497 L 17.399999618530273 -120.19999694824216 L 17.43600082397461 -119.70200347900388 L 17.54199981689453 -119.213996887207 L 17.701871871948242 -118.78399658203122 L 17.715999603271484 -118.7460021972656 L 17.95599937438965 -118.30799865722653 L 18.2549991607666 -117.90799713134763 L 18.607999801635742 -117.55500030517575 L 19.007999420166016 -117.25599670410153 L 19.445999145507812 -117.015998840332 L 19.913999557495117 -116.84200286865232 L 20.402000427246094 -116.73600006103513 L 20.479999542236328 -116.73036193847653 L 20.899999618530273 -116.69999694824216 L 21.398000717163086 -116.73600006103513 L 21.88599967956543 -116.84200286865232 L 22.354000091552734 -117.015998840332 L 22.79199981689453 -117.25599670410153 L 23.191999435424805 -117.55500030517575 L 23.545000076293945 -117.90799713134763 L 23.8439998626709 -118.30799865722653 L 24.083999633789062 -118.7460021972656 L 24.098127365112305 -118.78399658203122 L 24.257999420166016 -119.213996887207 L 24.36400032043457 -119.70200347900388 L 24.399999618530273 -120.19999694824216 L 24.36400032043457 -120.69799804687497 L 24.257999420166016 -121.18599700927732 L 24.083999633789062 -121.65399932861325 L 23.8439998626709 -122.09200286865232 L 23.545000076293945 -122.49199676513669 L 23.191999435424805 -122.8450012207031 L 23.145177841186523 -122.87999725341794 L 22.79199981689453 -123.14399719238278 L 22.354000091552734 -123.38400268554685 L 21.88599967956543 -123.55799865722653 L 21.398000717163086 -123.66400146484372 L 20.899999618530273 -123.69999694824216 L 20.402000427246094 -123.66400146484372 L 19.913999557495117 -123.55799865722653 L 19.445999145507812 -123.38400268554685 L 19.007999420166016 -123.14399719238278 M -18.687000274658203 -147.61000061035153 L -18.861900329589844 -147.45599365234372 L -19.0049991607666 -147.33000183105466 L -19.270999908447266 -146.99999999999997 L -19.47800064086914 -146.63000488281247 L -19.618999481201172 -146.22999572753903 L -19.69099998474121 -145.8119964599609 L -19.69099998474121 -145.38800048828122 L -19.618999481201172 -144.9700012207031 L -19.47800064086914 -144.57000732421872 L -19.270999908447266 -144.19999694824216 L -19.0049991607666 -143.86999511718747 L -18.687000274658203 -143.5899963378906 L -18.326000213623047 -143.36799621582028 L -18.30605125427246 -143.36000061035153 L -17.93199920654297 -143.21000671386716 L -17.51799964904785 -143.11999511718747 L -17.0939998626709 -143.10200500488278 L -16.67300033569336 -143.15600585937497 L -16.384000778198242 -143.2444915771484 L -16.26799964904785 -143.27999877929685 L -15.888999938964844 -143.47099304199216 L -15.54800033569336 -143.7230072021484 L -15.255000114440918 -144.02900695800778 L -15.017000198364258 -144.38099670410153 L -14.843000411987305 -144.7669982910156 L -14.736000061035156 -145.17700195312497 L -14.699999809265137 -145.6000061035156 L -14.736000061035156 -146.02299499511716 L -14.843000411987305 -146.43299865722653 L -15.017000198364258 -146.8190002441406 L -15.255000114440918 -147.1710052490234 L -15.527892112731934 -147.45599365234372 L -15.54800033569336 -147.47700500488278 L -15.888999938964844 -147.72900390624997 L -16.26799964904785 -147.91999816894528 L -16.67300033569336 -148.04400634765622 L -17.0939998626709 -148.0980072021484 L -17.51799964904785 -148.08000183105466 L -17.93199920654297 -147.99000549316403 L -18.326000213623047 -147.83200073242185 L -18.687000274658203 -147.61000061035153 M -41.667999267578125 -147.91999816894528 L -42.073001861572266 -148.04400634765622 L -42.49399948120117 -148.0980072021484 L -42.917999267578125 -148.08000183105466 L -43.332000732421875 -147.99000549316403 L -43.72600173950195 -147.83200073242185 L -44.08700180053711 -147.61000061035153 L -44.26190185546875 -147.45599365234372 L -44.404998779296875 -147.33000183105466 L -44.67100143432617 -146.99999999999997 L -44.87799835205078 -146.63000488281247 L -45.01900100708008 -146.22999572753903 L -45.090999603271484 -145.8119964599609 L -45.090999603271484 -145.38800048828122 L -45.01900100708008 -144.9700012207031 L -44.87799835205078 -144.57000732421872 L -44.67100143432617 -144.19999694824216 L -44.404998779296875 -143.86999511718747 L -44.08700180053711 -143.5899963378906 L -43.72600173950195 -143.36799621582028 L -43.706050872802734 -143.36000061035153 L -43.332000732421875 -143.21000671386716 L -42.917999267578125 -143.11999511718747 L -42.49399948120117 -143.10200500488278 L -42.073001861572266 -143.15600585937497 L -41.667999267578125 -143.27999877929685 L -41.50925827026367 -143.36000061035153 L -41.28900146484375 -143.47099304199216 L -40.959999084472656 -143.71412658691403 L -40.948001861572266 -143.7230072021484 L -40.654998779296875 -144.02900695800778 L -40.41699981689453 -144.38099670410153 L -40.24300003051758 -144.7669982910156 L -40.13600158691406 -145.17700195312497 L -40.099998474121094 -145.6000061035156 L -40.13600158691406 -146.02299499511716 L -40.24300003051758 -146.43299865722653 L -40.41699981689453 -146.8190002441406 L -40.654998779296875 -147.1710052490234 L -40.92789077758789 -147.45599365234372 L -40.948001861572266 -147.47700500488278 L -41.28900146484375 -147.72900390624997 L -41.667999267578125 -147.91999816894528 M -6.392000198364258 -123.14399719238278 L -6.745177268981934 -122.87999725341794 L -6.791999816894531 -122.8450012207031 L -7.144999980926514 -122.49199676513669 L -7.443999767303467 -122.09200286865232 L -7.684000015258789 -121.65399932861325 L -7.857999801635742 -121.18599700927732 L -7.964000225067139 -120.69799804687497 L -8 -120.19999694824216 L -7.964000225067139 -119.70200347900388 L -7.857999801635742 -119.213996887207 L -7.6981282234191895 -118.78399658203122 L -7.684000015258789 -118.7460021972656 L -7.443999767303467 -118.30799865722653 L -7.144999980926514 -117.90799713134763 L -6.791999816894531 -117.55500030517575 L -6.392000198364258 -117.25599670410153 L -5.953999996185303 -117.015998840332 L -5.486000061035156 -116.84200286865232 L -4.998000144958496 -116.73600006103513 L -4.5 -116.69999694824216 L -4.0960001945495605 -116.72920227050778 L -4.001999855041504 -116.73600006103513 L -3.5139999389648438 -116.84200286865232 L -3.0460000038146973 -117.015998840332 L -2.6080000400543213 -117.25599670410153 L -2.2079999446868896 -117.55500030517575 L -1.8550000190734863 -117.90799713134763 L -1.555999994277954 -118.30799865722653 L -1.315999984741211 -118.7460021972656 L -1.3018717765808105 -118.78399658203122 L -1.1419999599456787 -119.213996887207 L -1.0360000133514404 -119.70200347900388 L -1 -120.19999694824216 L -1.0360000133514404 -120.69799804687497 L -1.1419999599456787 -121.18599700927732 L -1.315999984741211 -121.65399932861325 L -1.555999994277954 -122.09200286865232 L -1.8550000190734863 -122.49199676513669 L -2.2079999446868896 -122.8450012207031 L -2.2548227310180664 -122.87999725341794 L -2.6080000400543213 -123.14399719238278 L -3.0460000038146973 -123.38400268554685 L -3.5139999389648438 -123.55799865722653 L -4.001999855041504 -123.66400146484372 L -4.5 -123.69999694824216 L -4.998000144958496 -123.66400146484372 L -5.486000061035156 -123.55799865722653 L -5.953999996185303 -123.38400268554685 L -6.392000198364258 -123.14399719238278 M -31.79199981689453 -123.14399719238278 L -32.14517593383789 -122.87999725341794 L -32.19200134277344 -122.8450012207031 L -32.54499816894531 -122.49199676513669 L -32.768001556396484 -122.19367218017575 L -32.84400177001953 -122.09200286865232 L -33.08399963378906 -121.65399932861325 L -33.257999420166016 -121.18599700927732 L -33.36399841308594 -120.69799804687497 L -33.400001525878906 -120.19999694824216 L -33.36399841308594 -119.70200347900388 L -33.257999420166016 -119.213996887207 L -33.08399963378906 -118.7460021972656 L -32.84400177001953 -118.30799865722653 L -32.768001556396484 -118.2063293457031 L -32.54499816894531 -117.90799713134763 L -32.19200134277344 -117.55500030517575 L -31.79199981689453 -117.25599670410153 L -31.354000091552734 -117.015998840332 L -30.88599967956543 -116.84200286865232 L -30.398000717163086 -116.73600006103513 L -29.899999618530273 -116.69999694824216 L -29.402000427246094 -116.73600006103513 L -28.913999557495117 -116.84200286865232 L -28.445999145507812 -117.015998840332 L -28.007999420166016 -117.25599670410153 L -27.607999801635742 -117.55500030517575 L -27.2549991607666 -117.90799713134763 L -26.95599937438965 -118.30799865722653 L -26.715999603271484 -118.7460021972656 L -26.701871871948242 -118.78399658203122 L -26.54199981689453 -119.213996887207 L -26.43600082397461 -119.70200347900388 L -26.399999618530273 -120.19999694824216 L -26.43600082397461 -120.69799804687497 L -26.54199981689453 -121.18599700927732 L -26.715999603271484 -121.65399932861325 L -26.95599937438965 -122.09200286865232 L -27.2549991607666 -122.49199676513669 L -27.607999801635742 -122.8450012207031 L -27.654823303222656 -122.87999725341794 L -28.007999420166016 -123.14399719238278 L -28.445999145507812 -123.38400268554685 L -28.913999557495117 -123.55799865722653 L -29.402000427246094 -123.66400146484372 L -29.899999618530273 -123.69999694824216 L -30.398000717163086 -123.66400146484372 L -30.88599967956543 -123.55799865722653 L -31.354000091552734 -123.38400268554685 L -31.79199981689453 -123.14399719238278 M -57.19200134277344 -123.14399719238278 L -57.5451774597168 -122.87999725341794 L -57.59199905395508 -122.8450012207031 L -57.94499969482422 -122.49199676513669 L -58.24399948120117 -122.09200286865232 L -58.48400115966797 -121.65399932861325 L -58.65800094604492 -121.18599700927732 L -58.763999938964844 -120.69799804687497 L -58.79999923706055 -120.19999694824216 L -58.763999938964844 -119.70200347900388 L -58.65800094604492 -119.213996887207 L -58.48400115966797 -118.7460021972656 L -58.24399948120117 -118.30799865722653 L -57.94499969482422 -117.90799713134763 L -57.59199905395508 -117.55500030517575 L -57.34400177001953 -117.36962127685544 L -57.19200134277344 -117.25599670410153 L -56.75400161743164 -117.015998840332 L -56.2859992980957 -116.84200286865232 L -55.79800033569336 -116.73600006103513 L -55.29999923706055 -116.69999694824216 L -54.801998138427734 -116.73600006103513 L -54.31399917602539 -116.84200286865232 L -53.84600067138672 -117.015998840332 L -53.40800094604492 -117.25599670410153 L -53.007999420166016 -117.55500030517575 L -52.654998779296875 -117.90799713134763 L -52.35599899291992 -118.30799865722653 L -52.11600112915039 -118.7460021972656 L -52.101871490478516 -118.78399658203122 L -51.94200134277344 -119.213996887207 L -51.83599853515625 -119.70200347900388 L -51.79999923706055 -120.19999694824216 L -51.83599853515625 -120.69799804687497 L -51.94200134277344 -121.18599700927732 L -52.11600112915039 -121.65399932861325 L -52.35599899291992 -122.09200286865232 L -52.654998779296875 -122.49199676513669 L -53.007999420166016 -122.8450012207031 L -53.0548210144043 -122.87999725341794 L -53.40800094604492 -123.14399719238278 L -53.84600067138672 -123.38400268554685 L -54.31399917602539 -123.55799865722653 L -54.801998138427734 -123.66400146484372 L -55.29999923706055 -123.69999694824216 L -55.79800033569336 -123.66400146484372 L -56.2859992980957 -123.55799865722653 L -56.75400161743164 -123.38400268554685 L -57.19200134277344 -123.14399719238278 z"
     fill="none"
     stroke="rgb(255,0,0)"
     stroke-width="0.001mm"
     id="path1212"
     style="stroke-width:0.3;stroke-dasharray:none" />
</svg>
